<svg xmlns="http://www.w3.org/2000/svg" width="612" height="792" viewBox="0 0 612 792">
  <rect width="100%" height="100%" fill="#fff" />
  <text x="306" y="50" font-family="Arial" font-size="12" text-anchor="middle" fill="#000">Sheet 4 of 6</text>
  <rect x="150" y="100" width="312" height="60" rx="5" fill="none" stroke="#000" stroke-width="2" /><text x="480" y="115" font-family="Arial" font-size="14" font-weight="normal" fill="#000">400</text>
  <rect x="130" y="240" width="120" height="60" rx="5" fill="none" stroke="#000" stroke-width="1.5" /><text x="190" y="230" font-family="Arial" font-size="14" font-weight="normal" text-anchor="middle" fill="#000">406</text>
  <rect x="360" y="240" width="120" height="70" rx="5" fill="none" stroke="#000" stroke-width="1.5" /><text x="420" y="230" font-family="Arial" font-size="14" font-weight="normal" text-anchor="middle" fill="#000">402</text>
  <rect x="360" y="360" width="120" height="40" rx="5" fill="none" stroke="#000" stroke-width="1.5" /><text x="420" y="420" font-family="Arial" font-size="14" font-weight="normal" text-anchor="middle" fill="#000">404</text>
  <rect x="130" y="480" width="160" height="80" rx="5" fill="none" stroke="#000" stroke-width="1" stroke-dasharray="4,2" /><text x="210" y="580" font-family="Arial" font-size="14" font-weight="normal" text-anchor="middle" fill="#000">408</text>
  <rect x="340" y="480" width="160" height="80" rx="5" fill="none" stroke="#000" stroke-width="1" stroke-dasharray="4,2" /><text x="420" y="580" font-family="Arial" font-size="14" font-weight="normal" text-anchor="middle" fill="#000">410</text>
  <path d="M190 160v80" stroke="#000" stroke-width="1.2" marker-end="url(#arrow)" /><path d="M420 160v80" stroke="#000" stroke-width="1.2" marker-end="url(#arrow)" /><path d="M420 310v50" stroke="#000" stroke-width="1.2" marker-end="url(#arrow)" />
  <path d="M130 270h-30V130h50" stroke="#000" stroke-width="1.5" marker-end="url(#arrow)" fill="none" />
  <path d="M480 380h30V130h-50" stroke="#000" stroke-width="1.5" marker-end="url(#arrow)" fill="none" />
  <defs><marker id="arrow" markerWidth="10" markerHeight="7" refX="10" refY="3.5" orient="auto"><polygon points="0 0, 10 3.5, 0 7" fill="#000" /></marker></defs>
  <text x="306" y="700" font-family="Arial" font-size="18" font-weight="normal" text-anchor="middle" fill="#000">FIG. 4</text>
</svg>